/* XPM */
static char * tool_line_xpm[] = {
"30 30 3 1",
" 	c None",
".	c #D6D6D6",
"+	c #000000",
"..............................",
"..+...........................",
".+++..........................",
"..+++.........................",
"...+++........................",
"....+++.......................",
".....+++......................",
"......+++.....................",
".......+++....................",
"........+++...................",
".........+++..................",
"..........+++.................",
"...........+++................",
"............+++...............",
".............+++..............",
"..............+++.............",
"...............+++............",
"................+++...........",
".................+++..........",
"..................+++.........",
"...................+++........",
"....................+++.......",
".....................+++......",
"......................+++.....",
".......................+++....",
"........................+++...",
".........................+++..",
"..........................+++.",
"...........................+..",
".............................."};
