/* XPM */
static char * tool_rect_xpm[] = {
"30 30 148 2",
"  	c None",
". 	c #DFDEE2",
"+ 	c #E0DEE3",
"@ 	c #E0DFE2",
"# 	c #E0DFE4",
"$ 	c #E1E0E3",
"% 	c #E2E1E4",
"& 	c #E2E1E5",
"* 	c #E3E2E5",
"= 	c #E3E3E6",
"- 	c #E4E3E6",
"; 	c #E5E3E7",
"> 	c #E5E4E7",
", 	c #E6E5E8",
"' 	c #E7E7E9",
") 	c #E7E7EA",
"! 	c #E8E7EA",
"~ 	c #E8E8EA",
"{ 	c #E8E8EB",
"] 	c #E9E9EC",
"^ 	c #EBEAED",
"/ 	c #EAEAED",
"( 	c #EBEBED",
"_ 	c #ECECEE",
": 	c #EDECEE",
"< 	c #EDEDEE",
"[ 	c #DFDFE3",
"} 	c #E0E0E3",
"| 	c #E1E0E4",
"1 	c #E2E2E6",
"2 	c #E3E2E6",
"3 	c #E4E4E7",
"4 	c #E5E5E8",
"5 	c #E6E5E9",
"6 	c #E6E6E8",
"7 	c #E6E6EA",
"8 	c #E9E7EA",
"9 	c #EAE9EC",
"0 	c #EAEAEC",
"a 	c #EBEAEC",
"b 	c #ECEBED",
"c 	c #ECEBEE",
"d 	c #ECECEF",
"e 	c #EDEDEF",
"f 	c #E0E0E4",
"g 	c #E1E1E4",
"h 	c #E4E3E7",
"i 	c #E5E6E8",
"j 	c #E7E5E9",
"k 	c #E7E6E9",
"l 	c #E9E8EB",
"m 	c #E9E9EB",
"n 	c #EDECEF",
"o 	c #EDEDF0",
"p 	c #EEEEF0",
"q 	c #E0DFE3",
"r 	c #E4E4E8",
"s 	c #E6E4E8",
"t 	c #E6E6E9",
"u 	c #E8E7EB",
"v 	c #EAEAEB",
"w 	c #EEEEEF",
"x 	c #E5E4E8",
"y 	c #E7E6EA",
"z 	c #EBECEE",
"A 	c #EFEEF1",
"B 	c #000000",
"C 	c #EFEEF0",
"D 	c #EFEFF1",
"E 	c #F0EEF1",
"F 	c #F0EFF1",
"G 	c #E3E1E5",
"H 	c #EBEBEE",
"I 	c #EEEDF0",
"J 	c #EFEFF0",
"K 	c #F0EFF2",
"L 	c #F0F0F2",
"M 	c #E7E6E8",
"N 	c #E9E8EC",
"O 	c #EFEDF0",
"P 	c #F1F1F2",
"Q 	c #F1F1F3",
"R 	c #E9E8EA",
"S 	c #F0F0F1",
"T 	c #F0F1F2",
"U 	c #F2F1F2",
"V 	c #E6E5E7",
"W 	c #ECEAED",
"X 	c #ECECED",
"Y 	c #F1F0F2",
"Z 	c #F2F2F3",
"` 	c #F2F2F4",
" .	c #F2F1F3",
"..	c #F3F2F4",
"+.	c #EAE9EB",
"@.	c #F3F3F4",
"#.	c #EBEBEC",
"$.	c #ECEDEE",
"%.	c #F4F4F4",
"&.	c #F0F0F3",
"*.	c #F4F4F5",
"=.	c #F3F3F5",
"-.	c #F4F3F5",
";.	c #F5F4F5",
">.	c #F4F4F6",
",.	c #F5F5F6",
"'.	c #EDEEEF",
").	c #F5F4F6",
"!.	c #F6F5F7",
"~.	c #F3F4F5",
"{.	c #F4F5F6",
"].	c #F6F6F7",
"^.	c #F6F6F8",
"/.	c #EEEDEF",
"(.	c #EFF0F1",
"_.	c #F1F2F3",
":.	c #F6F5F6",
"<.	c #F7F6F7",
"[.	c #F7F7F8",
"}.	c #EAE9ED",
"|.	c #F2F3F4",
"1.	c #F8F7F9",
"2.	c #F1F0F3",
"3.	c #F3F4F4",
"4.	c #F8F7F8",
"5.	c #F8F8F8",
"6.	c #F8F8F9",
"7.	c #F9F9F9",
"8.	c #F3F2F3",
"9.	c #F5F5F5",
"0.	c #F7F6F8",
"a.	c #F9F8F9",
"b.	c #F9F9FA",
"c.	c #F9FAFB",
"d.	c #F9FAFA",
"e.	c #FAFAFB",
"f.	c #F4F5F5",
"g.	c #FAF9FA",
"h.	c #FAFAFA",
"i.	c #F6F6F6",
"j.	c #F7F7F9",
"k.	c #FBFBFC",
"l.	c #FBFBFB",
"m.	c #FAF9FB",
"n.	c #FBFAFB",
"o.	c #FAFBFB",
"p.	c #FCFCFC",
"q.	c #FBFCFC",
". + @ # $ % & & * = - ; > > , , ' ) ! ~ { ] ] ^ / ^ ( _ : < ",
". [ } | | & 1 * 2 = 3 3 4 5 6 7 ) ! 8 { ] 9 0 a ^ b c d < e ",
"[ } f g & & * 2 - h > 4 i j k ' ) ! l m 9 9 / b c _ n n o p ",
"q | | & & * 2 h h r s , , t k ! u ~ l v 0 / ^ c c n e e w p ",
"$ g & & 2 2 - ; 3 x , t t y ! ! { ] m 0 / ^ z c d n p w A A ",
"g & & * B B B B B B B B B B B B B B B B B B B B B B C C C D ",
"& 2 = 2 B B B B B B B B B B B B B B B B B B B B B B C E D F ",
"G 2 2 h B B 4 4 5 t k ! l l ] ] 0 / ^ H _ : e o I B J F K L ",
"1 2 h 3 B B t M t ) ! { { N 9 / ^ ^ H _ : e I O p B D L P Q ",
"= = h > B B j k y ) R m m 0 0 ^ ( b _ d e I w D C B S T U Q ",
"- 3 x V B B k ' ! ~ { m 9 a / W X _ n e e I A D F B L Y Z ` ",
"3 3 s , B B y ! { m m ] 0 0 ^ X _ : e p I p D F Y B Q  .Z ..",
"4 4 5 M B B ! ~ l +.0 9 ^ b c c : e p w C D F F Y B  .` @.@.",
"x 4 k k B B { l m 9 9 #.c z n $.e o C C D K L Y Y B ` ..@.%.",
", 5 k k B B l m 9 ^ ^ b X c : e e p C D D L &.Q Q B @.@.@.*.",
"6 k ! ! B B m ] 0 ^ H _ _ : e I p A D F S P Q  .` B =.-.*.;.",
"k ' ! ~ B B 0 / ^ b c _ d e w p D A S S Y P Q ` @.B -.>.;.,.",
") u l m B B 0 ^ ( ( _ e e '.p D J F S P Q Z Z ` @.B *.).,.!.",
"{ l l m B B / H _ _ e e I p A D D L Y P  .....@.~.B {.,.].^.",
"8 l ] m B B ( _ : n /.I p p F (.L Y U _.` ..=.@.*.B ,.:.].<.",
"m ] 0 ^ B B _ c e e o p C D S S P P  .` ..@.@.*.).B :.].[.[.",
"l 0 }.( B B : n /.I p C D K Y Y Q  .Z |.@.~.*.;.,.B ].<.[.1.",
"9 ^ ^ c B B e e I C J D F Y 2.Q  .Z ..-.3.*.{.,.!.B [.4.5.6.",
"a ( b _ B B /./.p A F S L Y  . .....-.*.*.>.,.].<.B [.1.6.7.",
"( c X _ B B I p D D S L P U Z 8.@.@.*.).9.!.].].0.B 6.a.7.7.",
"( c d n B B C C D F L P Q  .Z ..=.*.>.>.,.:.].<.4.B a.a.b.c.",
"c : n e B B B B B B B B B B B B B B B B B B B B B B a.b.d.e.",
": e /./.C D F S Y Q Q  .` |.-.-.).f.,.].<.0.4.6.6.7.g.h.h.e.",
"e /.p p D F S Y P Z Z ..` -.*.>.f.,.i.].[.4.j.6.b.b.d.e.k.l.",
"e p p J D F Y Y Q Q Z ..=.*.*.).:.i.].<.[.6.7.b.b.m.n.o.p.q."};
