/* XPM */
static char * tool_oval_xpm[] = {
"30 30 241 2",
"  	c None",
". 	c #7B7B7B",
"+ 	c #7E7D7D",
"@ 	c #808080",
"# 	c #828182",
"$ 	c #838483",
"% 	c #868686",
"& 	c #888888",
"* 	c #898A8A",
"= 	c #8C8C8C",
"- 	c #8E8E8E",
"; 	c #909090",
"> 	c #929292",
", 	c #949494",
"' 	c #969696",
") 	c #989898",
"! 	c #9A9A9A",
"~ 	c #9C9D9C",
"{ 	c #9F9E9E",
"] 	c #A0A0A0",
"^ 	c #A2A2A2",
"/ 	c #A4A5A4",
"( 	c #A6A7A6",
"_ 	c #A8A9A8",
": 	c #ABABAA",
"< 	c #ADADAD",
"[ 	c #AEAEAF",
"} 	c #B1B0B1",
"| 	c #B2B2B2",
"1 	c #B4B4B4",
"2 	c #B7B6B6",
"3 	c #7E7D7E",
"4 	c #80807F",
"5 	c #818182",
"6 	c #848384",
"7 	c #888887",
"8 	c #9A9B9A",
"9 	c #9C9C9C",
"0 	c #9E9E9E",
"a 	c #A5A4A4",
"b 	c #A6A6A6",
"c 	c #A8A8A9",
"d 	c #ABAAAA",
"e 	c #ACACAD",
"f 	c #AFAFAF",
"g 	c #B1B1B1",
"h 	c #B2B3B2",
"i 	c #B4B4B5",
"j 	c #B6B6B7",
"k 	c #B8B8B8",
"l 	c #828282",
"m 	c #848483",
"n 	c #8A898A",
"o 	c #A4A4A4",
"p 	c #A6A6A7",
"q 	c #A8A8A8",
"r 	c #AAAAAA",
"s 	c #AFAEAE",
"t 	c #B1B0B0",
"u 	c #B3B3B3",
"v 	c #B4B5B4",
"w 	c #B6B7B6",
"x 	c #BBBABA",
"y 	c #818281",
"z 	c #848484",
"A 	c #868586",
"B 	c #8A8A8A",
"C 	c #969796",
"D 	c #9C9D9D",
"E 	c #9E9F9F",
"F 	c #A1A0A0",
"G 	c #AAABAA",
"H 	c #ADADAC",
"I 	c #AEAFAE",
"J 	c #B1B1B0",
"K 	c #B5B5B5",
"L 	c #B6B6B6",
"M 	c #B8B9B9",
"N 	c #BABBBB",
"O 	c #BCBCBD",
"P 	c #000000",
"Q 	c #A9A8A8",
"R 	c #AFAEAF",
"S 	c #B3B2B2",
"T 	c #B8B9B8",
"U 	c #BBBBBA",
"V 	c #BDBCBC",
"W 	c #BFBFBF",
"X 	c #868585",
"Y 	c #8E8D8E",
"Z 	c #AEAEAE",
"` 	c #B0B1B1",
" .	c #B2B2B3",
"..	c #B5B5B4",
"+.	c #B7B7B6",
"@.	c #B8B8B9",
"#.	c #BEBEBF",
"$.	c #C1C1C0",
"%.	c #BDBDBC",
"&.	c #B7B7B7",
"*.	c #B9B9B9",
"=.	c #BCBDBC",
"-.	c #C0C1C0",
";.	c #C2C2C2",
">.	c #8A8A89",
",.	c #8C8B8C",
"'.	c #939292",
").	c #B9B8B8",
"!.	c #BEBFBF",
"~.	c #C1C1C1",
"{.	c #C2C3C3",
"].	c #C5C5C5",
"^.	c #BBBABB",
"/.	c #C1C0C1",
"(.	c #C3C2C3",
"_.	c #C5C4C5",
":.	c #C7C7C7",
"<.	c #919090",
"[.	c #BFBFBE",
"}.	c #C3C3C3",
"|.	c #C9C9C9",
"1.	c #939297",
"2.	c #C6C7C7",
"3.	c #CBCBCB",
"4.	c #979696",
"5.	c #C8C9C9",
"6.	c #CBCBCA",
"7.	c #CDCDCD",
"8.	c #9A9A9B",
"9.	c #CFCFCF",
"0.	c #C8C8C9",
"a.	c #CDCDCC",
"b.	c #D1D1D1",
"c.	c #9B9A9B",
"d.	c #9D9D9C",
"e.	c #9E9E9F",
"f.	c #D3D3D3",
"g.	c #9B9B9B",
"h.	c #9F9E9F",
"i.	c #A0A1A0",
"j.	c #D0D1D1",
"k.	c #D5D5D5",
"l.	c #A2A3A2",
"m.	c #D7D7D7",
"n.	c #A1A0A1",
"o.	c #A2A3A3",
"p.	c #D9D9D9",
"q.	c #A7A6A6",
"r.	c #A1A0A7",
"s.	c #D8D8D8",
"t.	c #DBDBDC",
"u.	c #A7A6A7",
"v.	c #A9A9A9",
"w.	c #AAAAA9",
"x.	c #D9D9DA",
"y.	c #DDDDDD",
"z.	c #A5A5A5",
"A.	c #ABAAAB",
"B.	c #ACADAD",
"C.	c #ADADAE",
"D.	c #D6D5D5",
"E.	c #DAD9D9",
"F.	c #DBDBDB",
"G.	c #DDDDDE",
"H.	c #DFDFDF",
"I.	c #ACADAC",
"J.	c #AFB0B1",
"K.	c #D4D3D4",
"L.	c #D9DAD9",
"M.	c #DCDBDC",
"N.	c #DDDEDD",
"O.	c #DFE0DF",
"P.	c #E1E1E1",
"Q.	c #A9A9A8",
"R.	c #ABABAB",
"S.	c #ACACAC",
"T.	c #B5B4B5",
"U.	c #B3B4B6",
"V.	c #DCDBDB",
"W.	c #DFDFE0",
"X.	c #E3E3E4",
"Y.	c #AEAFAF",
"Z.	c #B2B3B3",
"`.	c #B9B9B8",
" +	c #E4E3E4",
".+	c #E6E5E5",
"++	c #B7B6B7",
"@+	c #BBBBBB",
"#+	c #BCBDBD",
"$+	c #BCBDBE",
"%+	c #B9B6BE",
"&+	c #CAC8CE",
"*+	c #E0DFDF",
"=+	c #E2E1E2",
"-+	c #E3E3E3",
";+	c #E7E8E8",
">+	c #B4B5B5",
",+	c #C3C3C2",
"'+	c #DAD9DA",
")+	c #DBDCDB",
"!+	c #E1E1E2",
"~+	c #E5E6E5",
"{+	c #E8E7E7",
"]+	c #E9E9EA",
"^+	c #B9B8B9",
"/+	c #BDBDBD",
"(+	c #BFBEBF",
"_+	c #C7C7C6",
":+	c #DEDEDD",
"<+	c #E3E4E3",
"[+	c #E5E6E6",
"}+	c #E9EAEA",
"|+	c #ECEBEB",
"1+	c #BDBCBD",
"2+	c #E3E4E4",
"3+	c #E6E6E5",
"4+	c #E7E8E7",
"5+	c #EAE9E9",
"6+	c #EBEBEB",
"7+	c #EEEEED",
"8+	c #C4C4C5",
"9+	c #D5D5D6",
"0+	c #D7D8D7",
"a+	c #D9DADA",
"b+	c #E1E2E1",
"c+	c #E5E5E5",
"d+	c #E7E7E8",
"e+	c #EDEEEE",
"f+	c #EFF0F0",
"g+	c #CBCCCB",
"h+	c #CFD0CF",
"i+	c #D5D6D5",
"j+	c #DEDDDE",
"k+	c #E0E0DF",
"l+	c #E1E2E2",
"m+	c #E8E7E8",
"n+	c #E9E9E9",
"o+	c #EBECEB",
"p+	c #EDEDEE",
"q+	c #F0F0F0",
"r+	c #F2F1F1",
". + @ # $ % & * = - ; > , ' ) ! ~ { ] ^ / ( _ : < [ } | 1 2 ",
"3 4 5 6 % 7 * = - ; > , ' ) 8 9 0 ] ^ a b c d e f g h i j k ",
"4 l m % & n = - ; > , ' ) ! 9 0 ] ^ o p q r e s t u v w k x ",
"y z A & B = - ; > , C ) 8 D E F ^ o p _ G H I J | K L M N O ",
"z % 7 B = - ; > , ' ) P P P P P P P Q d H R t S 1 w T U V W ",
"X & B = Y ; > , ' P P P P P P P P P P P Z `  ...+.@.x V #.$.",
"& B = - ; > , ' P P P %.%.%.%.%.%.%.P P P  .v &.*.N =.#.-.;.",
">.,.- ; '., ' P P %.%.%.%.%.%.%.%.%.%.%.P P +.).U V !.~.{.].",
"= - ; > , C P P %.%.%.%.%.%.%.%.%.%.%.%.%.P P ^.O W /.(._.:.",
"- <.> , ' P P %.%.%.%.%.%.%.%.%.%.%.%.%.%.%.P P [./.}.].:.|.",
"; > , ' 1.P P %.%.%.%.%.%.%.%.%.%.%.%.%.%.%.P P $.}.].2.|.3.",
"> , 4.) P P %.%.%.%.%.%.%.%.%.%.%.%.%.%.%.%.%.P P ].:.5.6.7.",
", ' ) 8.P P %.%.%.%.%.%.%.%.%.%.%.%.%.%.%.%.%.P P :.|.3.7.9.",
"' ) 8 9 P P %.%.%.%.%.%.%.%.%.%.%.%.%.%.%.%.%.P P 0.3.a.9.b.",
") c.d.e.P P %.%.%.%.%.%.%.%.%.%.%.%.%.%.%.%.%.P P 3.7.9.b.f.",
"g.9 h.i.P P %.%.%.%.%.%.%.%.%.%.%.%.%.%.%.%.%.P P 7.9.j.f.k.",
"9 0 ] l.P P %.%.%.%.%.%.%.%.%.%.%.%.%.%.%.%.%.P P 9.b.f.k.m.",
"{ n.o.a P P %.%.%.%.%.%.%.%.%.%.%.%.%.%.%.%.%.P P b.f.k.m.p.",
"] ^ a q.r.P P %.%.%.%.%.%.%.%.%.%.%.%.%.%.%.P P b.f.k.s.p.t.",
"l.o u.v.w.P P %.%.%.%.%.%.%.%.%.%.%.%.%.%.%.P P f.k.m.x.t.y.",
"z.u.Q A.B.C.P P %.%.%.%.%.%.%.%.%.%.%.%.%.P P f.D.m.E.F.G.H.",
"( _ r I.R J J.P P %.%.%.%.%.%.%.%.%.%.%.P P K.k.m.L.M.N.O.P.",
"Q.R.S.s }  .T.U.P P P %.%.%.%.%.%.%.P P P f.k.m.p.V.y.W.P.X.",
": < Y.J Z...&.`.*.P P P P P P P P P P P f.D.m.p.F.y.H.P. +.+",
"< I ` S T.++*.@+#+$+%+P P P P P P P &+f.k.m.E.V.y.*+=+-+.+;+",
"[ g u >++.*.^.%.!.~.,+].:.|.3.7.9.b.f.D.m.'+)+y.O.!+-+~+{+]+",
"` h T.+.^+U /+(+$.}.]._+|.3.7.9.b.f.k.m.p.F.:+H.P.<+[+{+}+|+",
"h >++.@.@+1+!./.}._.:.|.3.7.9.b.f.k.m.p.t.G.*+P.2+3+4+5+6+7+",
">++.*.@+/+W ~.}.8+:.|.3.7.9.b.f.9+0+a+t.N.H.b+-+c+d+5+|+e+f+",
"++*.U 1+W $.{.].:.|.g+7.h+b.f.i+m.p.t.j+k+l+2+c+m+n+o+p+q+r+"};
